<svg xmlns="http://www.w3.org/2000/svg" viewBox="0 0 64 64" width="64" height="64">
  <!-- Background Circle -->
  <circle cx="32" cy="32" r="30" fill="#228B22" stroke="#2F4F2F" stroke-width="2"/>
  
  <!-- Peashooter Head -->
  <ellipse cx="32" cy="24" rx="10" ry="12" fill="#90EE90"/>
  <ellipse cx="32" cy="24" rx="8" ry="10" fill="#98FB98"/>
  
  <!-- Mouth -->
  <ellipse cx="32" cy="28" rx="6" ry="4" fill="#000000"/>
  <ellipse cx="32" cy="27" rx="5" ry="3" fill="#FF6347"/>
  
  <!-- Eyes -->
  <circle cx="28" cy="20" r="2.5" fill="#FFFFFF"/>
  <circle cx="36" cy="20" r="2.5" fill="#FFFFFF"/>
  <circle cx="28" cy="20" r="1.5" fill="#000000"/>
  <circle cx="36" cy="20" r="1.5" fill="#000000"/>
  <circle cx="28.5" cy="19.5" r="0.5" fill="#FFFFFF"/>
  <circle cx="36.5" cy="19.5" r="0.5" fill="#FFFFFF"/>
  
  <!-- Stem -->
  <rect x="30" y="32" width="4" height="12" fill="#228B22" rx="2"/>
  
  <!-- Leaf -->
  <ellipse cx="28" cy="36" rx="4" ry="2" fill="#32CD32" transform="rotate(-30 28 36)"/>
  <ellipse cx="36" cy="36" rx="4" ry="2" fill="#32CD32" transform="rotate(30 36 36)"/>
  
  <!-- Pot/Base -->
  <ellipse cx="32" cy="46" rx="8" ry="3" fill="#8B4513"/>
  <rect x="24" y="44" width="16" height="4" fill="#A0522D" rx="2"/>
</svg>

