<svg xmlns="http://www.w3.org/2000/svg" viewBox="0 0 64 64" width="64" height="64">
  <!-- Background Circle with Gradient -->
  <defs>
    <linearGradient id="bgGrad" x1="0%" y1="0%" x2="100%" y2="100%">
      <stop offset="0%" style="stop-color:#6B8E23;stop-opacity:1" />
      <stop offset="100%" style="stop-color:#8B9A3C;stop-opacity:1" />
    </linearGradient>
  </defs>
  <circle cx="32" cy="32" r="30" fill="url(#bgGrad)" stroke="#2F4F2F" stroke-width="2"/>
  
  <!-- Plant Icon (Simplified) -->
  <path d="M 20 40 L 20 50 L 24 50 L 24 44 L 28 44 L 28 50 L 32 50 L 32 40 L 28 40 L 28 36 L 24 36 L 24 40 Z" fill="#90EE90"/>
  <circle cx="26" cy="32" r="4" fill="#FFD700"/>
  
  <!-- Zombie Icon (Simplified) -->
  <path d="M 36 40 L 36 50 L 40 50 L 40 44 L 44 44 L 44 50 L 48 50 L 48 40 L 44 40 L 44 36 L 40 36 L 40 40 Z" fill="#8B9A3C"/>
  <circle cx="42" cy="32" r="4" fill="#2F2F2F"/>
  
  <!-- VS Text -->
  <text x="32" y="38" font-family="Arial, sans-serif" font-size="6" font-weight="bold" fill="#FFD700" text-anchor="middle">VS</text>
</svg>

