<svg xmlns="http://www.w3.org/2000/svg" viewBox="0 0 64 64" width="64" height="64">
  <!-- Background Circle -->
  <circle cx="32" cy="32" r="30" fill="#6B8E23" stroke="#2F4F2F" stroke-width="2"/>
  
  <!-- P Letter (Plants) -->
  <path d="M 18 20 L 18 44 L 24 44 L 24 36 L 28 36 Q 32 36 32 32 Q 32 28 28 28 L 24 28 L 24 20 Z" fill="#FFFFFF"/>
  
  <!-- vs. -->
  <text x="32" y="36" font-family="Arial, sans-serif" font-size="8" font-weight="bold" fill="#FFD700" text-anchor="middle">vs</text>
  
  <!-- Z Letter (Zombies) -->
  <path d="M 36 20 L 46 20 L 46 24 L 40 24 L 46 40 L 46 44 L 36 44 L 36 40 L 42 40 L 36 24 Z" fill="#FFFFFF"/>
  
  <!-- Decorative Elements -->
  <circle cx="14" cy="14" r="2" fill="#FFD700"/>
  <circle cx="50" cy="14" r="2" fill="#FFD700"/>
  <circle cx="14" cy="50" r="2" fill="#FFD700"/>
  <circle cx="50" cy="50" r="2" fill="#FFD700"/>
</svg>

