<svg xmlns="http://www.w3.org/2000/svg" viewBox="0 0 64 64" width="64" height="64">
  <!-- Background Circle -->
  <circle cx="32" cy="32" r="30" fill="#2F4F2F" stroke="#1A1A1A" stroke-width="2"/>
  
  <!-- Game Grid Background -->
  <rect x="16" y="20" width="32" height="24" fill="#228B22" opacity="0.3" rx="2"/>
  
  <!-- Grid Lines -->
  <line x1="24" y1="20" x2="24" y2="44" stroke="#6B8E23" stroke-width="1" opacity="0.5"/>
  <line x1="32" y1="20" x2="32" y2="44" stroke="#6B8E23" stroke-width="1" opacity="0.5"/>
  <line x1="40" y1="20" x2="40" y2="44" stroke="#6B8E23" stroke-width="1" opacity="0.5"/>
  <line x1="16" y1="28" x2="48" y2="28" stroke="#6B8E23" stroke-width="1" opacity="0.5"/>
  <line x1="16" y1="36" x2="48" y2="36" stroke="#6B8E23" stroke-width="1" opacity="0.5"/>
  
  <!-- Plants -->
  <circle cx="20" cy="24" r="3" fill="#90EE90"/>
  <circle cx="28" cy="24" r="3" fill="#FFD700"/>
  <circle cx="36" cy="24" r="3" fill="#90EE90"/>
  
  <!-- Zombie -->
  <circle cx="44" cy="32" r="4" fill="#8B9A3C"/>
  <circle cx="42" cy="30" r="1" fill="#000000"/>
  <circle cx="46" cy="30" r="1" fill="#000000"/>
  
  <!-- Sun -->
  <circle cx="50" cy="18" r="4" fill="#FFD700"/>
  <line x1="50" y1="12" x2="50" y2="14" stroke="#FFD700" stroke-width="1.5" stroke-linecap="round"/>
  <line x1="50" y1="22" x2="50" y2="24" stroke="#FFD700" stroke-width="1.5" stroke-linecap="round"/>
  <line x1="44" y1="18" x2="46" y2="18" stroke="#FFD700" stroke-width="1.5" stroke-linecap="round"/>
  <line x1="54" y1="18" x2="56" y2="18" stroke="#FFD700" stroke-width="1.5" stroke-linecap="round"/>
</svg>

