<svg xmlns="http://www.w3.org/2000/svg" viewBox="0 0 64 64" width="64" height="64">
  <!-- Background Circle -->
  <circle cx="32" cy="32" r="30" fill="#6B8E23" stroke="#2F4F2F" stroke-width="2"/>
  
  <!-- Sunflower -->
  <circle cx="32" cy="28" r="12" fill="#FFD700"/>
  <circle cx="32" cy="28" r="8" fill="#FFA500"/>
  <circle cx="32" cy="28" r="4" fill="#8B4513"/>
  
  <!-- Petals -->
  <ellipse cx="32" cy="18" rx="3" ry="6" fill="#FFD700" transform="rotate(0 32 28)"/>
  <ellipse cx="32" cy="38" rx="3" ry="6" fill="#FFD700" transform="rotate(0 32 28)"/>
  <ellipse cx="22" cy="28" rx="6" ry="3" fill="#FFD700" transform="rotate(0 32 28)"/>
  <ellipse cx="42" cy="28" rx="6" ry="3" fill="#FFD700" transform="rotate(0 32 28)"/>
  <ellipse cx="26" cy="20" rx="3" ry="6" fill="#FFD700" transform="rotate(45 32 28)"/>
  <ellipse cx="38" cy="36" rx="3" ry="6" fill="#FFD700" transform="rotate(45 32 28)"/>
  <ellipse cx="38" cy="20" rx="3" ry="6" fill="#FFD700" transform="rotate(-45 32 28)"/>
  <ellipse cx="26" cy="36" rx="3" ry="6" fill="#FFD700" transform="rotate(-45 32 28)"/>
  
  <!-- Stem -->
  <rect x="30" y="40" width="4" height="8" fill="#228B22" rx="2"/>
  <ellipse cx="32" cy="48" rx="6" ry="3" fill="#228B22"/>
</svg>

